<?xml version="1.0" encoding="utf-8"?>
<!-- Generator: Adobe Illustrator 23.0.3, SVG Export Plug-In . SVG Version: 6.00 Build 0)  -->
<svg version="1.1" id="Layer_1" xmlns="http://www.w3.org/2000/svg" xmlns:xlink="http://www.w3.org/1999/xlink" x="0px" y="0px"
	 viewBox="0 0 710 415" style="enable-background:new 0 0 710 415;" xml:space="preserve">
<style type="text/css">
	.st0{fill:#FEE600;}
	.st1{fill:#FFFFFF;}
	.st2{fill-rule:evenodd;clip-rule:evenodd;fill:#FFFFFF;stroke:#000000;stroke-width:1.27;stroke-miterlimit:22.93;}
	.st3{fill-rule:evenodd;clip-rule:evenodd;}
	.st4{fill-rule:evenodd;clip-rule:evenodd;fill:#FFFFFF;}
	.st5{fill-rule:evenodd;clip-rule:evenodd;fill:#FEE600;}
	.st6{enable-background:new    ;}
	.st7{fill-rule:evenodd;clip-rule:evenodd;fill:#2C2B2A;}
</style>
<title>header_710</title>
<g>
	<g id="верхняя_плашка">
		<rect y="0" class="st0" width="710" height="415"/>
		<circle class="st1" cx="487.3" cy="179.9" r="80.2"/>
		<rect x="37" y="75" width="14" height="5"/>
		<rect x="63" y="75" width="14" height="5"/>
		<rect x="54" y="60" width="7" height="13"/>
		<rect x="54" y="84" width="7" height="13"/>
		<rect x="648" y="245" width="10" height="3"/>
		<rect x="666" y="245" width="10" height="3"/>
		<rect x="660" y="234" width="4" height="9"/>
		<rect x="660" y="251" width="4" height="9"/>
		<rect x="648" y="66" width="10" height="3"/>
		<rect x="666" y="66" width="10" height="3"/>
		<rect x="660" y="54" width="4" height="9"/>
		<rect x="660" y="70" width="4" height="9"/>
		<polygon class="st2" points="541.8,227.5 547.2,225.5 601.6,225.5 606.9,228.9 596.3,238.3 601.5,243.8 610.6,246.7 617.9,251 
			610.5,259.1 592.4,252.9 589.5,255.8 589.5,267.8 586.3,270.9 		"/>
		<path class="st3" d="M560.3,251.4l25.7,25.8l2.9-3c1.6-1.6,2.9-3,2.9-3c-0.4-0.5-0.9-1.1-1.4-1.5c-0.8-0.8-1.4-1.5-1.4-1.6
			c0.4-0.5,0.9-1,1.4-1.5l1.4-1.4l-1.2-1.2c-1.2-1.3-1.4-1.5-1.2-2c0.4-0.6,0.9-1.1,1.3-1.6l1.2-1.4l-1.5-1.5L589,256l1.5-1.5
			l1.5-1.5l3,3l3,3l1.5-1.5l1.5-1.5l3,3l3,3l0.6-0.6c0.3-0.3,1-1,1.5-1.6l0.9-1l-3-2.8l-2.9-2.9l-0.4,0.3c-0.2,0.2-0.8,0.7-1.1,1
			s-0.9,0.9-1.2,1.1l-0.5,0.4L598,253l-3-3l-1.5,1.5l-1.5,1.6l-1.6-1.6l-1.6-1.5l-1.5,1.4l-1.5,1.4l1.6,1.6l1.6,1.5l-1.6,1.6
			l-1.6,1.6l1.5,1.5l1.5,1.5l-1.5,1.5l-1.5,1.5l1.5,1.5l1.5,1.5l-1.6,1.6l-1.6,1.6L564.7,250c-11.6-11.6-21.1-21.2-21.1-21.2
			s0.7-0.7,1.6-1.6l1.6-1.5l1.5,1.5l1.5,1.5l1.5-1.4l1.5-1.4l1.5,1.4l1.5,1.5l1.6-1.6l1.6-1.6l1.6,1.6l1.6,1.6l1.5-1.4l1.5-1.4
			l-1.6-1.6l-1.6-1.6l-1.5,1.4l-1.5,1.4l-1.5-1.5l-1.5-1.4l-1.6,1.6l-1.6,1.6l-1.5-1.5l-1.5-1.5l-1.5,1.4l-1.5,1.4l-1.5-1.5
			l-1.5-1.5l-1.6,1.6l-1.6,1.6l-1.5-1.5l-1.5-1.5l-1.5,1.4l-1.5,1.4L560.3,251.4z"/>
		<path class="st3" d="M565.3,226.1c0.2,0.2,0.8,0.9,1.4,1.5l1,1.1l1.5-1.5l1.5-1.5l1.6,1.5l1.6,1.5l1.6-1.5l1.6-1.5l1.5,1.5
			l1.5,1.4l1.5-1.4l1.5-1.4l-1.5-1.5l-1.5-1.4l-1.4,1.4l-1.4,1.4l-0.3-0.2c-0.8-0.6-1.6-1.3-2.4-2l-0.7-0.7l-1.5,1.5l-1.5,1.5
			l-1.5-1.5l-1.5-1.4l-1.4,1.4l-1.4,1.4L565.3,226.1z"/>
		<path class="st3" d="M583,225.9c0,0.1,0.7,0.7,1.5,1.5l1.4,1.3l1.5-1.6l1.5-1.6l1.6,1.6l1.6,1.6l1.1-1.2c1.3-1.4,1.5-1.6,1.4-1.9
			c-0.4-0.5-0.9-1.1-1.4-1.6l-1.3-1.4l-1.5,1.5l-1.4,1.5l-1.5-1.5l-1.5-1.4l-1.5,1.5C583.3,225.5,583,225.8,583,225.9z"/>
		<path class="st3" d="M596.5,227.3l1.5,1.5l1.6-1.6l1.6-1.6l1.6,1.6l1.6,1.6l-6,6l-6,6l3,3l3,3l1.5-1.4l1.4-1.4l3,3l3,3l1.6-1.6
			l1.6-1.6l3,3l3,3L613,256l-3.1,3.1l0.4,0.3c0.8,0.6,1.6,1.3,2.4,2l0.6,0.6l3-3l3-3l-1.6-1.6l-1.6-1.6l1.5-1.4l1.5-1.4l-3-3l-3-3
			l-1.5,1.4l-1.5,1.4l-3-3l-3-3l-1.6,1.6L601,244l-0.9-1c-1.3-1.4-1.7-2-1.8-2.2s0.8-1,5.8-6.1l5.8-5.9l-3-3l-3-3l-1.5,1.4l-1.5,1.5
			l-1.5-1.4l-1.5-1.5l-1.6,1.6l-1.5,1.6L596.5,227.3z"/>
		<path class="st1" d="M319.8,38.2v-8H106.2v8h-8v69.7h8v6h117v21h6v8h7v6h14.7v-14.7h-6v-20.3h75v-6h8V38.2H319.8z"/>
		<path d="M327.8,38.2v-8h-8v-7H106.2v7h-8v8h-6v69.7h6v6h8v8h109v13h8v8h6v6h7v7h21v6h8.7v-8.7h-7v-19h-8v-12.3h69v-8h8v-6h6V38.2
			H327.8z M325.2,65.8v39.3h-6v8h-77v21.7h8v12.3h-12.3v-7h-6v-6h-8v-21h-117v-8h-6V38.8h6v-7h212.3v7h6V65.8z"/>
		<polygon class="st3" points="90,244 72,244 72,251 95,251 95,228 90,228 		"/>
		<polygon class="st3" points="34,212 40,212 40,195 56,195 56,189 34,189 		"/>
		<path class="st3" d="M72,229v-6h-5.4c0-0.8,0.2-5.2-0.1-5.5s-4.6-0.1-5.5-0.1V213h-5v5h6c0,0.8-0.2,5.1,0.1,5.4s4.2,0.1,4.9,0.1
			v5.4h5V229z"/>
		<path class="st3" d="M73,229v5h4.9c0,0.8-0.2,4.6,0.1,4.9c1.6,0.2,3.3,0.2,4.9,0c0.3-0.3,0.1-4.8,0-4.9c-0.2-0.3-4.3-0.2-5-0.2
			V229H73z"/>
		<path class="st3" d="M55,211v-5h-4.9c0-0.8,0.2-4.6-0.1-4.9c-1.6-0.2-3.3-0.2-4.9,0c-0.3,0.3-0.1,4.8,0,4.9c0.2,0.3,4.3,0.2,5,0.2
			v4.9L55,211L55,211z"/>
		<polygon class="st3" points="645,147 634,147 634,151 649,151 649,136 645,136 		"/>
		<polygon class="st3" points="606,125 611,125 611,113 621,113 621,110 606,110 		"/>
		<path class="st3" d="M633,136v-4h-4c0-0.6,0.2-3.5-0.1-3.8s-3.4-0.1-4-0.1V125h-3v3h3c-0.1,1.3-0.1,2.6,0.1,3.8
			c0.2,0.2,3.1,0.1,3.9,0.1v4.1L633,136L633,136z"/>
		<path class="st3" d="M634,136v3h3c-0.1,1.1-0.1,2.3,0.1,3.4c1.1,0.1,2.2,0.1,3.4,0c0.1-1.1,0.1-2.2,0-3.3c-0.2-0.2-3-0.1-3.5-0.1
			v-3L634,136z"/>
		<path class="st3" d="M621,124v-3h-3.6c0.1-1.1,0.1-2.3-0.1-3.4c-1.1-0.1-2.2-0.1-3.4,0c-0.1,1.1-0.1,2.2,0,3.3
			c0.1,0.2,2.9,0.1,4,0.1v3H621z"/>
		<rect x="133" y="203" width="13" height="5"/>
		<rect x="157" y="203" width="13" height="5"/>
		<rect x="150" y="189" width="5" height="11"/>
		<rect x="150" y="210" width="5" height="11"/>
		<path class="st4" d="M416.1,67l-30.4-11c-0.2-0.1-0.4-0.1-0.6-0.1c-0.8,0-1.4,0.5-1.7,1.2l-11,30.4c0,0.1-0.1,0.2-0.1,0.3
			l-10.9,30.3c-0.3,0.9,0.1,2,1.1,2.3l30.4,11c0.2,0.1,0.4,0.1,0.6,0.1c0.8,0,1.4-0.5,1.7-1.2l2.8-6.8c0.9,0.5,4.2,3.4,7.4,3.4
			c1.9,0,3.8-1,5-4.2c3-7.4-6.3-7.1-9.1-7.7l4.8-15.2c0-0.1,0.1-0.3,0.1-0.4l2.7-10.4h-0.1c-1.2,0-13.2-0.2-10.4-9.3
			c0.4-1.7,1.4-3.1,2.9-4h0.1c0.2-0.1,0.4-0.2,0.6-0.3c0.7-0.2,1.4-0.3,2.1-0.3c2.2,0.1,4.3,0.6,6.3,1.5c0.6,0.2,1.2,0.5,1.9,0.8
			C412.3,77.4,417,67.4,416.1,67z M385.1,56.7c0.1,0,0.2,0,0.3,0l29.8,10.7c0,0.1,0,0.2-0.1,0.3l-29.5-10.6
			c-0.4-0.1-0.8-0.1-1.2,0.2v-0.1C384.4,56.9,384.7,56.7,385.1,56.7L385.1,56.7z M407.6,89.7l-0.1,0.3c-2.4-0.2-6.8-0.9-8.9-3.7
			c-0.1-0.1-0.1-0.2-0.2-0.3C400.8,88.9,405.2,89.6,407.6,89.7L407.6,89.7z"/>
		<path class="st4" d="M479.5,47.4l-6.6-5.4l0.9-0.3c1.1-0.4,2.1-1.1,2.9-2c2.4-2.8,2.1-7-0.7-9.4c-2.8-2.4-7-2.1-9.4,0.7
			c-0.1,0.1-0.1,0.2-0.2,0.2c-0.8,0.9-1.3,2-1.4,3.2l-0.1,0.9l-10.3-8.4c-0.2-0.2-0.5-0.3-0.8-0.3c-0.4,0-0.8,0.2-1,0.5l-7,8.5
			c3.2,3.1,3.3,8.2,0.2,11.4c-2.7,2.8-7.1,3.3-10.4,1l-3.4,4.1c-0.4,0.5-0.4,1.3,0.2,1.8l25,20.5c0.2,0.2,0.5,0.3,0.8,0.3
			c0.4,0,0.8-0.2,1-0.5l20.5-25C480.1,48.7,480.1,47.9,479.5,47.4L479.5,47.4z"/>
		<path class="st4" d="M339.2,141.7l-29.8-12.6c-0.6-0.3-1.4,0-1.7,0.7l0,0l-3.3,7.8l-0.6-0.8c-0.7-1-1.7-1.7-2.8-2.2
			c-3.4-1.4-7.3,0.2-8.7,3.6c-1.4,3.4,0.2,7.3,3.6,8.7c1.1,0.5,2.3,0.6,3.5,0.5l0.9-0.1l-5.2,12.3c-0.1,0.3-0.1,0.6,0,0.8
			c0.1,0.4,0.4,0.7,0.7,0.8l10.1,4.3c2-4,6.8-5.6,10.8-3.7c3.7,1.8,5.4,6.1,4,9.9l4.9,2.1c0.6,0.3,1.4,0,1.7-0.7l12.5-29.8
			c0.1-0.3,0.1-0.6,0-0.8C339.8,142.1,339.6,141.8,339.2,141.7z"/>
		<path class="st4" d="M564.7,99.6c-0.4,0-0.8-0.1-1-0.4l-33.1-27.1c-0.7-0.6-0.8-1.6-0.2-2.3l0,0l4.4-5.4
			c4.8,3.5,11.4,2.4,14.9-2.4c3.2-4.4,2.6-10.4-1.4-14.1l9.2-11.2c0.3-0.4,0.8-0.6,1.3-0.6c0.4,0,0.8,0.1,1.1,0.4l13.6,11.2l0.2-1.2
			c0.8-4.8,5.3-8.1,10.1-7.3s8.1,5.3,7.3,10.1c-0.2,1.5-0.9,3-1.9,4.2s-2.3,2.1-3.8,2.7l-1.2,0.4l8.7,7.1c0.7,0.6,0.8,1.6,0.2,2.4
			L566,99C565.7,99.4,565.2,99.6,564.7,99.6z"/>
		<path class="st5" d="M492.9,173c-4,0-7.8-1.9-10.2-5.1c-1.4-2-1.7-4.7-0.7-7c0.4-1.1,1.1-2.1,2-2.9l0.7-0.6l-4.1-1.5
			c-0.7-0.2-1-1-0.8-1.6l11-30.4c0.2-0.5,0.7-0.8,1.2-0.8c0.1,0,0.3,0,0.4,0.1l30.2,10.9c-0.1,1.3-2.7,7.4-3.6,9.2
			c-3.4-1.4-5.9-2.1-8-2.1c-3.1,0-5.1,1.6-6.2,5c-0.8,2.5-0.5,4.6,0.7,6.2c2.3,3.2,7.6,3.7,9.6,3.7l-2.5,10.1
			c-0.2,0.5-0.7,0.8-1.2,0.8c-0.1,0-0.3,0-0.4-0.1l-8.5-3.1l-0.1,0.6C501.4,169.8,497.9,173,492.9,173L492.9,173z"/>
		<g>
			<g>
				<path d="M103.7,130.2v4.4h4.7v2.1h-4.7v6.8h-2.3v-15.4h8.1v2.1H103.7z"/>
				<path d="M121.9,143.5l-3.5-6.4h-1.8v6.4h-2.3v-15.4h4.7c1.4,0,2.6,0.4,3.4,1.2c0.8,0.7,1.4,1.8,1.4,3.5c0,1.1-0.3,1.9-0.7,2.4
					c-0.3,0.4-1,1.3-2.3,1.6l3.9,6.7H121.9z M118.8,135c0.5,0,1.2-0.1,1.8-0.6c0.5-0.5,0.7-1.1,0.7-1.8c0-0.5-0.1-1.3-0.7-1.8
					c-0.4-0.4-1.1-0.6-1.8-0.6h-2.3v4.8H118.8z"/>
				<path d="M138.1,128.1v2.1h-6.9v4.2h6v2.1h-6v4.9h7.2v2.1h-9.5v-15.4H138.1z"/>
				<path d="M152.9,128.1v2.1h-6.9v4.2h6v2.1h-6v4.9h7.2v2.1h-9.5v-15.4H152.9z"/>
			</g>
		</g>
		<g class="st6">
			<path d="M137.7,280v12.7h-2.2V280h-3.8v-2h9.9v2H137.7z"/>
			<path d="M152.1,292.7v-1c-1.2,1.1-2.5,1.2-3.2,1.2c-1.4,0-2.3-0.4-2.9-0.9c-0.5-0.4-1.1-1.2-1.1-2.5c0-0.9,0.4-2.3,1.8-3
				c0.5-0.3,1.5-0.7,3.7-0.7h1.7v-0.4c0-0.5,0-1.3-0.5-1.8c-0.3-0.2-0.8-0.4-1.6-0.4c-1.1,0-1.6,0.2-1.8,0.3
				c-0.4,0.3-0.5,0.6-0.5,0.9h-2.2c0.1-1.3,0.8-2,1.5-2.4c0.5-0.3,1.4-0.6,3.2-0.6c0.9,0,2.3,0.1,3.2,0.9c1,0.9,1.1,2.4,1.1,3.5v6.9
				H152.1z M152.1,287.5h-1.5c-0.8,0-1.5,0-2.1,0.2c-0.7,0.2-1.3,0.7-1.3,1.7c0,0.6,0.2,1,0.5,1.2c0.3,0.3,0.8,0.5,1.5,0.5
				c0.9,0,1.8-0.4,2.3-1.1c0.3-0.4,0.6-1.1,0.6-2.2V287.5z"/>
		</g>
		<g class="st6">
			<path d="M172.6,289.3c0,1.3-0.7,2.1-1.4,2.7c-0.7,0.5-1.6,0.9-3,0.9c-1.5,0-2.7-0.5-3.5-1.8c-0.8-1.1-1.1-2.6-1.1-4
				c0-1.7,0.5-3.2,1.4-4.2c1-1.1,2.1-1.5,3.4-1.5c1.3,0,2.1,0.4,2.6,0.7c0.6,0.4,1.3,1.1,1.5,2.5h-2.3c0-0.2-0.2-0.6-0.6-0.9
				c-0.3-0.2-0.8-0.4-1.2-0.4c-1,0-1.7,0.5-2,1c-0.5,0.8-0.6,2-0.6,2.8c0,0.9,0.1,2.1,0.6,2.9c0.5,0.9,1.4,1,1.9,1s1-0.2,1.4-0.5
				c0.4-0.4,0.5-0.8,0.5-1.1h2.4V289.3z"/>
		</g>
		<g class="st6">
			<path d="M182.6,292.7v-1c-1.2,1.1-2.5,1.2-3.2,1.2c-1.4,0-2.3-0.4-2.9-0.9c-0.5-0.4-1.1-1.2-1.1-2.5c0-0.9,0.4-2.3,1.8-3
				c0.5-0.3,1.5-0.7,3.7-0.7h1.7v-0.4c0-0.5,0-1.3-0.5-1.8c-0.3-0.2-0.8-0.4-1.6-0.4c-1.1,0-1.6,0.2-1.8,0.3
				c-0.4,0.3-0.5,0.6-0.5,0.9H176c0.1-1.3,0.8-2,1.5-2.4c0.5-0.3,1.4-0.6,3.2-0.6c0.9,0,2.3,0.1,3.2,0.9c1,0.9,1.1,2.4,1.1,3.5v6.9
				H182.6z M182.6,287.5h-1.5c-0.8,0-1.5,0-2.1,0.2c-0.7,0.2-1.3,0.7-1.3,1.7c0,0.6,0.2,1,0.5,1.2c0.3,0.3,0.8,0.5,1.5,0.5
				c0.9,0,1.8-0.4,2.3-1.1c0.3-0.4,0.6-1.1,0.6-2.2V287.5z"/>
			<path d="M197.2,292.7v-8l-2.2,4.6h-1.4l-2.2-4.6v8h-2.1v-11h2.5l2.6,5.1l2.5-5.1h2.5v11H197.2z"/>
			<path d="M210.6,292.7v-1c-1.2,1.1-2.5,1.2-3.2,1.2c-1.4,0-2.3-0.4-2.9-0.9c-0.5-0.4-1.1-1.2-1.1-2.5c0-0.9,0.4-2.3,1.8-3
				c0.5-0.3,1.5-0.7,3.7-0.7h1.7v-0.4c0-0.5,0-1.3-0.5-1.8c-0.3-0.2-0.8-0.4-1.6-0.4c-1.1,0-1.6,0.2-1.8,0.3
				c-0.4,0.3-0.5,0.6-0.5,0.9H204c0.1-1.3,0.8-2,1.5-2.4c0.5-0.3,1.4-0.6,3.2-0.6c0.9,0,2.3,0.1,3.2,0.9c1,0.9,1.1,2.4,1.1,3.5v6.9
				H210.6z M210.6,287.5h-1.5c-0.8,0-1.5,0-2.1,0.2c-0.7,0.2-1.3,0.7-1.3,1.7c0,0.6,0.2,1,0.5,1.2c0.3,0.3,0.8,0.5,1.5,0.5
				c0.9,0,1.8-0.4,2.3-1.1c0.3-0.4,0.6-1.1,0.6-2.2V287.5z"/>
			<path d="M225.5,292.7h-2.2v-4.3h-2l-2.5,4.3h-2.6l3-4.7c-0.1,0-1-0.2-1.6-0.8c-0.2-0.2-0.8-0.9-0.8-2.2c0-1.5,0.8-2.4,1.5-2.8
				c0.9-0.5,2.1-0.5,2.9-0.5h4.4L225.5,292.7L225.5,292.7z M221.1,283.6c-0.9,0-1.3,0.2-1.4,0.2c-0.2,0.1-0.7,0.5-0.7,1.4
				c0,0.4,0.2,0.8,0.5,1c0.4,0.3,0.9,0.3,1.4,0.3h2.4v-3h-2.2V283.6z"/>
			<path d="M234.7,292.7v-2h3.1V280h-2.6v-2h7.4v2H240v10.7h3v2H234.7z"/>
		</g>
		<g class="st6">
			<path d="M252.2,280v12.7H250V280h-3.8v-2h9.9v2H252.2z"/>
		</g>
		<g class="st6">
			<path d="M256,287.9v-2.3h5.9v2.3H256z"/>
		</g>
		<g class="st6">
			<path d="M272.4,292.7l-4.8-4.9v4.9h-2.2v-11h2.2v4.4l4.3-4.4h2.8l-5.2,5.2l5.6,5.8H272.4z"/>
		</g>
		<g class="st6">
			<path d="M285.8,283.2c0.7,0.9,1.3,2.1,1.3,4c0,1.8-0.5,3.1-1.3,3.9c-0.8,1-2.1,1.8-4.1,1.8s-3.2-0.8-4.1-1.8
				c-0.7-0.9-1.3-2.1-1.3-3.9s0.6-3.1,1.3-4c0.8-1,2.1-1.8,4.1-1.8S285,282.2,285.8,283.2z M279.4,284.6c-0.6,0.8-0.7,1.8-0.7,2.5
				s0.1,1.7,0.7,2.5c0.4,0.5,1.1,1.2,2.4,1.2s2-0.7,2.4-1.2c0.6-0.8,0.7-1.8,0.7-2.5s-0.1-1.7-0.7-2.5c-0.4-0.5-1.1-1.2-2.4-1.2
				S279.7,284.1,279.4,284.6z"/>
			<path d="M298.5,292.7v-4.8H293v4.8h-2.2v-11h2.2v4.3h5.5v-4.3h2.2v11H298.5z"/>
			<path d="M311.7,281.7h0.4c1.2,0,2.7,0.3,3.7,1.6c1.1,1.3,1.2,3,1.2,3.9s-0.1,2.7-1.2,4c-1,1.2-2.5,1.6-3.7,1.6h-0.4v3.7h-2.2
				v-3.7h-0.4c-1.2,0-2.7-0.3-3.7-1.6c-1.1-1.3-1.2-3-1.2-4c0-0.9,0.1-2.6,1.2-3.9c1-1.2,2.5-1.6,3.7-1.6h0.4v-3.6h2.2V281.7z
				 M309.2,283.4c-0.6,0-1.5,0.2-2.1,1s-0.7,1.9-0.7,2.8s0.1,2,0.7,2.8s1.4,1,2.1,1h0.3v-7.5L309.2,283.4L309.2,283.4z M311.7,290.9
				h0.3c0.6,0,1.5-0.2,2.1-1s0.7-1.9,0.7-2.8c0-0.8-0.1-2-0.7-2.8s-1.4-1-2.1-1h-0.3V290.9z"/>
			<path d="M322.8,287.6c0,0.8,0.1,1.8,0.8,2.5c0.7,0.7,1.7,0.9,2.4,0.9c0.4,0,0.8,0,1.2-0.3c0.3-0.2,0.4-0.4,0.5-0.6h2.3
				c0,0.4-0.2,1-0.8,1.7c-0.7,0.7-1.6,1.1-3.3,1.1c-1.2,0-2.9-0.2-4-1.5c-0.7-0.7-1.4-2.1-1.4-4.2s0.7-3.7,1.7-4.6
				c0.6-0.6,1.7-1.2,3.5-1.2c1.5,0,2.7,0.4,3.5,1.3c1.2,1.3,1.3,3,1.3,4.2v0.7H322.8z M328.2,285.7c0-0.8-0.3-1.3-0.6-1.6
				c-0.4-0.5-1.1-0.8-1.9-0.8s-1.4,0.2-1.8,0.5c-0.8,0.6-1,1.3-1,1.9H328.2z"/>
			<path d="M336.7,282.9c0.4-0.6,1-0.9,1.5-1.1c0.6-0.2,1.1-0.3,1.8-0.3c1.1,0,2.3,0.2,3.4,1.3c1.2,1.2,1.4,2.9,1.4,4.4
				c0,1.8-0.3,3.1-1.2,4.2c-0.7,0.9-1.8,1.5-3.6,1.5c-0.6,0-1.2-0.1-1.9-0.4c-0.7-0.3-1.1-0.7-1.4-1.1v4.9h-2.2v-14.7h2.1v1.3H336.7
				z M342,284.4c-0.4-0.5-1.1-1.1-2.2-1.1c-1.2,0-1.9,0.6-2.3,1.2c-0.5,0.8-0.6,1.9-0.6,2.6c0,0.6,0.1,1.7,0.6,2.6
				c0.4,0.6,1.1,1.2,2.3,1.2c1.3,0,2-0.8,2.3-1.3c0.4-0.7,0.6-1.6,0.6-2.5C342.7,285.5,342.1,284.6,342,284.4z"/>
			<path d="M350.8,287.6c0,0.8,0.1,1.8,0.8,2.5c0.7,0.7,1.7,0.9,2.4,0.9c0.4,0,0.8,0,1.2-0.3c0.3-0.2,0.4-0.4,0.5-0.6h2.3
				c0,0.4-0.2,1-0.8,1.7c-0.7,0.7-1.6,1.1-3.3,1.1c-1.2,0-2.9-0.2-4-1.5c-0.7-0.7-1.4-2.1-1.4-4.2s0.7-3.7,1.7-4.6
				c0.6-0.6,1.7-1.2,3.5-1.2c1.5,0,2.7,0.4,3.5,1.3c1.2,1.3,1.3,3,1.3,4.2v0.7H350.8z M356.2,285.7c0-0.8-0.3-1.3-0.6-1.6
				c-0.4-0.5-1.1-0.8-1.9-0.8s-1.4,0.2-1.8,0.5c-0.8,0.6-1,1.3-1,1.9H356.2z"/>
			<path d="M370.3,292.7v-4.8h-5.5v4.8h-2.2v-11h2.2v4.3h5.5v-4.3h2.2v11H370.3z"/>
			<path d="M385.9,281.7v9.1h1.6v5h-2.1v-3.1h-8.7v-11h2.2v9.1h4.9v-9.1H385.9z"/>
			<path d="M398.4,292.7v-8l-5.5,8h-2.3v-11h2.2v8l5.5-8h2.3v11H398.4z"/>
			<path d="M412.8,292.7h-2.2v-4.3h-2l-2.5,4.3h-2.6l3-4.7c-0.1,0-1-0.2-1.6-0.8c-0.2-0.2-0.8-0.9-0.8-2.2c0-1.5,0.8-2.4,1.5-2.8
				c0.9-0.5,2.1-0.5,2.9-0.5h4.4L412.8,292.7L412.8,292.7z M408.4,283.6c-0.9,0-1.3,0.2-1.4,0.2c-0.2,0.1-0.7,0.5-0.7,1.4
				c0,0.4,0.2,0.8,0.5,1c0.4,0.3,0.9,0.3,1.4,0.3h2.4v-3h-2.2V283.6z"/>
			<path d="M427.7,281.7c0.8,0,2.2,0.1,3.1,0.9c0.4,0.4,0.9,1,0.9,2c0,0.5-0.2,1.1-0.4,1.5c-0.3,0.4-0.8,0.7-1.2,0.8
				c0.6,0.1,1.1,0.4,1.5,0.8s0.6,1.1,0.6,1.8c0,0.9-0.4,1.8-1,2.3c-1,0.9-2.5,0.9-3.2,0.9h-5.3v-11L427.7,281.7L427.7,281.7z
				 M427.3,286c0.4,0,1.2,0,1.7-0.4c0.2-0.2,0.4-0.5,0.4-0.9s-0.2-0.7-0.4-0.9c-0.4-0.3-1.2-0.3-1.5-0.3h-2.7v2.5L427.3,286
				L427.3,286z M427.7,290.8c0.4,0,1.1,0,1.6-0.4c0.2-0.2,0.4-0.5,0.4-1c0-0.6-0.3-1-0.6-1.2c-0.4-0.2-0.9-0.3-1.4-0.3h-3v3h3V290.8
				z"/>
			<path d="M446.1,292.9c-2.7,0-5.1-2.5-5.1-7.5s2.5-7.5,5.1-7.5c1.1,0,2.7,0.4,3.9,2.4c0.9,1.4,1.2,3.3,1.2,5.2
				C451.3,290.2,448.9,292.9,446.1,292.9z M448.4,281.7c-0.7-1.6-1.7-1.8-2.3-1.8c-0.9,0-2.9,0.7-2.9,5.5s1.9,5.5,2.9,5.5
				c0.9,0,2.9-0.7,2.9-5.5C449,283.6,448.7,282.5,448.4,281.7z"/>
			<path d="M463,292.7v-8l-2.2,4.6h-1.4l-2.2-4.6v8h-2.1v-11h2.5l2.6,5.1l2.5-5.1h2.5v11H463z"/>
			<path d="M477.9,289.3c0,1.3-0.7,2.1-1.4,2.7c-0.7,0.5-1.6,0.9-3,0.9c-1.5,0-2.7-0.5-3.5-1.8c-0.8-1.1-1.1-2.6-1.1-4
				c0-1.7,0.5-3.2,1.4-4.2c1-1.1,2.1-1.5,3.4-1.5s2.1,0.4,2.7,0.7c0.6,0.4,1.3,1.1,1.5,2.5h-2.3c0-0.2-0.2-0.6-0.6-0.9
				c-0.3-0.2-0.8-0.4-1.2-0.4c-1,0-1.7,0.5-2,1c-0.5,0.8-0.6,2-0.6,2.8c0,0.9,0.1,2.1,0.6,2.9c0.5,0.9,1.4,1,1.9,1s1-0.2,1.4-0.5
				c0.4-0.4,0.5-0.8,0.5-1.1h2.3V289.3z"/>
			<path d="M488.4,292.7l-4.8-4.9v4.9h-2.2v-11h2.2v4.4l4.3-4.4h2.8l-5.2,5.2l5.6,5.8H488.4z"/>
			<path d="M495.9,287.6c0,0.8,0.1,1.8,0.8,2.5c0.7,0.7,1.7,0.9,2.4,0.9c0.4,0,0.8,0,1.2-0.3c0.3-0.2,0.4-0.4,0.5-0.6h2.3
				c0,0.4-0.2,1-0.8,1.7c-0.7,0.7-1.6,1.1-3.3,1.1c-1.2,0-2.9-0.2-4-1.5c-0.7-0.7-1.4-2.1-1.4-4.2s0.7-3.7,1.7-4.6
				c0.6-0.6,1.7-1.2,3.5-1.2c1.5,0,2.7,0.4,3.5,1.3c1.2,1.3,1.3,3,1.3,4.2v0.7H495.9z M501.3,285.7c0-0.8-0.3-1.3-0.6-1.6
				c-0.4-0.5-1.1-0.8-1.9-0.8s-1.4,0.2-1.8,0.5c-0.8,0.6-1,1.3-1,1.9H501.3z"/>
		</g>
		<polygon class="st7" points="232,200.7 232,208.1 208.9,218.5 232,229 232,236.4 200,221.4 200,215.6 		"/>
		<path class="st7" d="M267,233.8c-3.2,1.6-6.7,2.4-10.3,2.5c-9.5,0-16.5-6.6-16.5-17.5c0-9.1,5.5-17.5,16.5-17.5
			c3.6,0,7.1,0.9,10.3,2.6v10.3c-2-2.1-4.8-3.3-7.7-3.4c-4.6,0-6.9,3.5-6.9,8.1s2.8,7.9,7.4,7.9c1.8,0,4.3-0.6,7.3-3.2L267,233.8
			L267,233.8z"/>
		<path class="st7" d="M296.9,218.8c0-5.3-2.5-9-7.3-9s-7.3,3.6-7.3,9s2.5,9,7.3,9S296.9,224.2,296.9,218.8z M270.2,218.8
			c0-9.2,6-17.5,19.4-17.5s19.4,8.3,19.4,17.5s-6,17.5-19.4,17.5S270.2,228.1,270.2,218.8L270.2,218.8z"/>
		<path class="st7" d="M339.3,218.8c0-4.7-2.9-7.8-7.1-7.8c-5,0-7,3.9-7,7.8s2.1,7.8,7,7.8C336.4,226.6,339.3,223.6,339.3,218.8z
			 M339,235v-4c0,0-5.1,5.1-9.5,5.1c-7.7,0-13.9-6.5-13.9-17.5c0-8.3,4-17.4,13.9-17.4c3.9,0,6.6,1.2,8.5,4.6V186h12v49H339z"/>
		<path class="st7" d="M380.4,215c-0.2-3.4-2.4-6.6-6.6-6.6c-4,0-6.4,3.1-6.6,6.6H380.4z M391.2,225c-3.7,10-14.5,10-17.3,10
			c-10,0-17.8-5.6-17.8-15.9c0-9.4,6.7-15.8,17.7-15.8c15.3,0,18,11.6,17.7,18.7H367c-0.1,3.3,2.3,6.6,6.9,6.6
			c3.2,0,5.5-1.3,6.1-3.6H391.2z"/>
		<polygon class="st7" points="420.8,182 427.7,182 403.5,245 396.5,245 		"/>
		<path class="st7" d="M449.3,209c4.8,0,6.3-2.7,6.3-5.5s-1.5-5.5-6.3-5.5H446v11H449.3z M433,188h19.2c15.5,0,16,11.9,16,14.1
			c0,8.9-5.4,12.6-9.7,14.1l13,18.8h-15.7l-9.8-15.5V235h-13V188z"/>
		<polygon class="st7" points="509,220.1 477,235.1 477,227.7 500.1,217.2 477,206.8 477,199.4 509,214.3 		"/>
		<g class="st6">
			<path d="M127.8,50.8c2.1-1.4,3.8-1.6,4.8-1.6c0.8,0,2.3,0.1,3.5,1c0.8,0.6,1.6,1.7,1.6,3.6c0,1.1-0.3,2.1-0.9,2.8
				c-0.9,1.2-2.3,2-3.7,2.9c-2.1,1.4-3.2,2.4-3.2,4.8h7.5v2.1h-10v-1.6c0-2.2,0.4-3.3,1.1-4.3c1-1.5,2.5-2.3,3.2-2.8
				c1-0.6,2.2-1.3,2.9-2.2c0.3-0.4,0.6-1,0.6-1.8c0-0.7-0.3-1.3-0.8-1.8c-0.7-0.6-1.5-0.6-2.1-0.6c-1.4,0-2.8,0.5-4.7,1.8v-2.3
				H127.8z"/>
			<path d="M153.2,62.2c-0.2,1-0.6,2.7-1.5,3.6c-0.7,0.7-1.9,1-3.9,1s-3.2-0.3-3.9-1s-1.2-1.9-1.5-3.5s-0.3-2.8-0.3-4.3
				s0.1-2.9,0.3-4.3c0.4-2.2,1.1-3.1,1.4-3.4c1-0.9,2.6-1,4-1s2.9,0.2,3.9,1c0.4,0.3,1,1.2,1.4,3.3c0.3,1.4,0.4,3.1,0.4,4.5
				C153.5,60,153.3,61.4,153.2,62.2z M150.8,54.4c-0.2-1.6-0.6-2.1-0.8-2.2c-0.5-0.5-1.4-0.6-2.2-0.6c-0.7,0-1.7,0.1-2.3,0.6
				c-0.2,0.2-0.5,0.8-0.8,2.1c-0.2,1.3-0.2,2.4-0.2,3.6c0,1,0,1.9,0.1,3.1c0.2,1.7,0.5,2.4,0.9,2.8c0.3,0.3,0.9,0.6,2.2,0.6
				c1.1,0,1.8-0.1,2.2-0.6c0.3-0.4,0.7-1,0.9-2.9c0.1-1.1,0.1-2.1,0.1-3.3C151,56.2,150.9,55.2,150.8,54.4z"/>
			<path d="M156.9,61.3v-2.4h6.3v2.4H156.9z"/>
			<path d="M167.5,50.8c2.1-1.4,3.8-1.6,4.8-1.6c0.8,0,2.3,0.1,3.5,1c0.8,0.6,1.6,1.7,1.6,3.6c0,1.1-0.3,2.1-0.9,2.8
				c-0.9,1.2-2.3,2-3.7,2.9c-2.1,1.4-3.2,2.4-3.2,4.8h7.5v2.1h-10v-1.6c0-2.2,0.4-3.3,1.1-4.3c1-1.5,2.5-2.3,3.2-2.8
				c1-0.6,2.2-1.3,2.9-2.2c0.3-0.4,0.6-1,0.6-1.8c0-0.7-0.3-1.3-0.8-1.8c-0.7-0.6-1.5-0.6-2.1-0.6c-1.4,0-2.8,0.5-4.7,1.8v-2.3
				H167.5z"/>
			<path d="M182.6,50.8c2.1-1.4,3.8-1.6,4.8-1.6c0.8,0,2.3,0.1,3.5,1c0.8,0.6,1.6,1.7,1.6,3.6c0,1.1-0.3,2.1-0.9,2.8
				c-0.9,1.2-2.3,2-3.7,2.9c-2.1,1.4-3.2,2.4-3.2,4.8h7.5v2.1h-10v-1.6c0-2.2,0.4-3.3,1.1-4.3c1-1.5,2.5-2.3,3.2-2.8
				c1-0.6,2.2-1.3,2.9-2.2c0.3-0.4,0.6-1,0.6-1.8c0-0.7-0.3-1.3-0.8-1.8c-0.7-0.6-1.5-0.6-2.1-0.6c-1.4,0-2.8,0.5-4.7,1.8v-2.3
				H182.6z"/>
			<path d="M212.5,56.3c0.8,0.9,1.4,2.3,1.4,4.3s-0.6,3.3-1.4,4.3c-0.9,1.1-2.3,1.9-4.4,1.9s-3.5-0.9-4.4-1.9
				c-0.8-0.9-1.4-2.3-1.4-4.3s0.6-3.3,1.4-4.3c0.9-1.1,2.3-1.9,4.4-1.9S211.6,55.2,212.5,56.3z M205.6,57.8
				c-0.6,0.9-0.8,1.9-0.8,2.7s0.1,1.8,0.8,2.7c0.4,0.6,1.2,1.3,2.6,1.3s2.2-0.8,2.6-1.3c0.6-0.9,0.8-1.9,0.8-2.7s-0.1-1.8-0.8-2.7
				c-0.4-0.6-1.2-1.3-2.6-1.3S206,57.3,205.6,57.8z"/>
			<path d="M225.5,66.5l-5.1-5.3v5.3H218V54.6h2.4v4.8l4.7-4.8h3l-5.6,5.6l6.1,6.3H225.5z"/>
			<path d="M236.7,56.7v9.8h-2.4v-9.8h-4.1v-2.1h10.7v2.1H236.7z"/>
			<path d="M253.2,66.5h-2.4v-4.6h-2.2l-2.7,4.6h-2.8l3.2-5.1c-0.1,0-1.1-0.3-1.7-0.8c-0.3-0.2-0.9-0.9-0.9-2.4c0-1.6,0.9-2.6,1.6-3
				c0.9-0.5,2.2-0.6,3.2-0.6h4.7L253.2,66.5L253.2,66.5z M248.5,56.7c-1,0-1.4,0.2-1.5,0.3c-0.2,0.1-0.7,0.5-0.7,1.5
				c0,0.4,0.2,0.8,0.6,1.1c0.4,0.3,1,0.4,1.5,0.4h2.6v-3.2L248.5,56.7L248.5,56.7z"/>
			<path d="M268.1,52c-0.5,0.2-0.9,0.3-1.5,0.3c-0.8,0.1-1.3,0-2,0.1h-1.1c-0.6,0-1.6,0.1-2.4,0.6c-0.6,0.4-0.9,0.8-1.1,1.5
				c-0.2,0.6-0.3,1.4-0.3,2.1c0.4-0.5,0.9-1.1,1.4-1.4c0.6-0.4,1.5-0.6,2.3-0.6c2.1,0,3.4,0.9,4.2,1.8c0.9,1.1,1.4,2.4,1.4,4.1
				c0,2-0.6,3.3-1.4,4.3c-0.9,1.1-2.3,1.9-4.4,1.9c-2.4,0-3.7-1.1-4.4-1.9c-1.2-1.5-1.4-3.4-1.4-5.4c0-3,0.2-4.5,0.5-5.3
				c0.5-1.7,1.5-2.7,2.4-3.2s2.2-0.7,3.3-0.7h1.2c0.4,0,1.3-0.1,1.7-0.1c0.4-0.1,1-0.2,1.5-0.3L268.1,52L268.1,52z M265.8,58
				c-0.6-0.9-1.5-1.3-2.6-1.3s-1.9,0.4-2.6,1.3c-0.5,0.8-0.8,1.7-0.8,2.7c0,1.2,0.3,2,0.8,2.6c0.6,0.8,1.6,1.3,2.6,1.3
				s2-0.4,2.6-1.3c0.4-0.6,0.8-1.5,0.8-2.6C266.6,59.7,266.3,58.8,265.8,58z"/>
			<path d="M275.1,55.9c0.5-0.6,1-1,1.7-1.2c0.6-0.2,1.2-0.3,2-0.3c1.2,0,2.5,0.2,3.7,1.4c1.3,1.3,1.6,3.1,1.6,4.8
				c0,1.9-0.3,3.4-1.3,4.6c-0.8,0.9-1.9,1.6-3.9,1.6c-0.6,0-1.3-0.1-2-0.4c-0.8-0.3-1.2-0.8-1.5-1.2v5.3H273V54.6h2.2v1.3H275.1z
				 M280.7,57.6c-0.4-0.6-1.2-1.1-2.4-1.1c-1.3,0-2,0.6-2.5,1.3c-0.6,0.9-0.7,2.1-0.7,2.8s0.1,1.8,0.7,2.8c0.4,0.7,1.2,1.3,2.5,1.3
				c1.4,0,2.2-0.8,2.5-1.4c0.4-0.7,0.6-1.7,0.6-2.7C281.5,58.7,280.9,57.8,280.7,57.6z"/>
			<path d="M296.7,66.5h-2.4v-4.6h-2.2l-2.7,4.6h-2.8l3.2-5.1c-0.1,0-1.1-0.3-1.7-0.8c-0.3-0.2-0.9-0.9-0.9-2.4c0-1.6,0.9-2.6,1.6-3
				c0.9-0.5,2.2-0.6,3.2-0.6h4.7L296.7,66.5L296.7,66.5z M292,56.7c-1,0-1.4,0.2-1.5,0.3c-0.2,0.1-0.7,0.5-0.7,1.5
				c0,0.4,0.2,0.8,0.6,1.1s1,0.4,1.5,0.4h2.6v-3.2L292,56.7L292,56.7z"/>
		</g>
		<g class="st6">
			<path d="M129.5,80.3v9.8h-2.4v-9.8H123v-2.1h10.7v2.1H129.5z"/>
		</g>
		<g class="st6">
			<path d="M138.7,84.7c0,0.9,0.1,2,0.9,2.7c0.8,0.8,1.8,0.9,2.6,0.9c0.5,0,0.9,0,1.3-0.3c0.4-0.2,0.5-0.4,0.5-0.7h2.5
				c0,0.4-0.2,1.1-0.8,1.8c-0.7,0.8-1.8,1.2-3.6,1.2c-1.3,0-3.1-0.3-4.4-1.6c-0.8-0.8-1.5-2.3-1.5-4.5s0.7-4,1.8-5
				c0.7-0.6,1.9-1.3,3.7-1.3c1.6,0,2.9,0.5,3.8,1.4c1.3,1.4,1.4,3.3,1.4,4.5v0.7h-8.2V84.7z M144.5,82.7c0-0.8-0.4-1.4-0.7-1.8
				c-0.4-0.5-1.2-0.8-2.1-0.8c-0.8,0-1.5,0.3-1.9,0.6c-0.9,0.6-1,1.4-1.1,2C138.7,82.7,144.5,82.7,144.5,82.7z"/>
			<path d="M161.7,78.3v11.9h-2.4v-9.8H154v9.8h-2.4V78.3H161.7z"/>
			<path d="M168.9,84.7c0,0.9,0.1,2,0.9,2.7c0.8,0.8,1.8,0.9,2.6,0.9c0.5,0,0.9,0,1.3-0.3c0.4-0.2,0.5-0.4,0.5-0.7h2.5
				c0,0.4-0.2,1.1-0.8,1.8c-0.7,0.8-1.8,1.2-3.6,1.2c-1.3,0-3.1-0.3-4.4-1.6c-0.8-0.8-1.5-2.3-1.5-4.5s0.7-4,1.8-5
				c0.7-0.6,1.9-1.3,3.7-1.3c1.6,0,2.9,0.5,3.8,1.4c1.3,1.4,1.4,3.3,1.4,4.5v0.7h-8.2V84.7z M174.7,82.7c0-0.8-0.4-1.4-0.7-1.8
				c-0.4-0.5-1.2-0.8-2.1-0.8c-0.8,0-1.5,0.3-1.9,0.6c-0.9,0.6-1,1.4-1.1,2C168.9,82.7,174.7,82.7,174.7,82.7z"/>
			<path d="M184,79.6c0.5-0.6,1-1,1.7-1.2c0.6-0.2,1.2-0.3,2-0.3c1.2,0,2.5,0.2,3.7,1.4c1.3,1.3,1.6,3.1,1.6,4.8
				c0,1.9-0.3,3.4-1.3,4.6c-0.8,0.9-1.9,1.6-3.9,1.6c-0.6,0-1.3-0.1-2-0.4c-0.8-0.3-1.2-0.8-1.5-1.2v5.3h-2.4V78.3h2.2v1.3H184z
				 M189.6,81.2c-0.4-0.6-1.2-1.1-2.4-1.1c-1.3,0-2,0.6-2.5,1.3c-0.6,0.9-0.7,2.1-0.7,2.8c0,0.7,0.1,1.8,0.7,2.8
				c0.4,0.7,1.2,1.3,2.5,1.3c1.4,0,2.2-0.8,2.5-1.4c0.4-0.7,0.6-1.7,0.6-2.7C190.4,82.3,189.8,81.4,189.6,81.2z"/>
			<path d="M199.4,82.6h2.4c1.2,0,2.4,0.1,3.4,0.8c0.9,0.7,1.3,1.7,1.3,3c0,1.4-0.5,2.2-1.1,2.7c-1.1,0.9-2.8,1-3.6,1h-4.7V78.3h2.4
				L199.4,82.6L199.4,82.6z M201.8,88.1c0.4,0,1.2,0,1.7-0.4c0.3-0.2,0.6-0.6,0.6-1.3c0-0.9-0.4-1.3-0.6-1.3c-0.4-0.3-1-0.4-1.9-0.4
				h-2.2v3.4C199.4,88.1,201.8,88.1,201.8,88.1z"/>
			<path d="M225.3,79.9c0.8,0.9,1.4,2.3,1.4,4.3s-0.6,3.3-1.4,4.3c-0.9,1.1-2.3,1.9-4.4,1.9s-3.5-0.9-4.4-1.9
				c-0.8-0.9-1.4-2.3-1.4-4.3s0.6-3.3,1.4-4.3c0.9-1.1,2.3-1.9,4.4-1.9S224.4,78.9,225.3,79.9z M218.3,81.5
				c-0.6,0.9-0.8,1.9-0.8,2.7c0,0.8,0.1,1.8,0.8,2.7c0.4,0.6,1.2,1.3,2.6,1.3s2.2-0.8,2.6-1.3c0.6-0.9,0.8-1.9,0.8-2.7
				c0-0.8-0.1-1.8-0.8-2.7c-0.4-0.6-1.2-1.3-2.6-1.3S218.7,80.9,218.3,81.5z"/>
			<path d="M239,90.2V85h-5.9v5.2h-2.4V78.3h2.4v4.6h5.9v-4.6h2.4v11.9C241.4,90.2,239,90.2,239,90.2z"/>
			<path d="M254.9,78.3v11.9h-2.4v-9.8h-4v3.8c0,2.8-0.4,3.8-0.7,4.4c-0.5,0.9-1.4,1.5-2.7,1.5h-1V88h0.4c0.6,0,1-0.3,1.3-0.6
				c0.4-0.5,0.5-1.4,0.5-4.1v-5C246.3,78.3,254.9,78.3,254.9,78.3z"/>
			<path d="M266.9,90.2V89c-1.3,1.2-2.6,1.3-3.5,1.3c-1.5,0-2.5-0.4-3.1-1c-0.6-0.5-1.2-1.3-1.2-2.7c0-1,0.4-2.5,1.9-3.3
				c0.5-0.3,1.6-0.8,4-0.8h1.8v-0.4c0-0.5,0-1.4-0.6-1.9c-0.3-0.3-0.9-0.4-1.8-0.4c-1.2,0-1.7,0.2-1.9,0.4c-0.4,0.3-0.6,0.7-0.6,1
				h-2.4c0.1-1.4,0.9-2.2,1.6-2.6c0.5-0.3,1.5-0.6,3.4-0.6c0.9,0,2.5,0.1,3.4,1c1,1,1.2,2.6,1.2,3.8v7.4
				C269.1,90.2,266.9,90.2,266.9,90.2z M266.9,84.5h-1.6c-0.9,0-1.6,0-2.3,0.2c-0.7,0.2-1.4,0.7-1.4,1.9c0,0.6,0.2,1,0.5,1.3
				c0.4,0.4,0.9,0.6,1.6,0.6c1,0,1.9-0.4,2.5-1.2c0.3-0.4,0.7-1.2,0.7-2.4L266.9,84.5L266.9,84.5z"/>
			<path d="M282.6,90.2v-8.6l-6,8.6h-2.5V78.3h2.4v8.6l6-8.6h2.5v11.9C285,90.2,282.6,90.2,282.6,90.2z M283.2,73.2
				c0,0.7-0.3,1.4-0.8,1.9c-0.8,0.8-2,0.9-2.8,0.9s-2.1-0.1-2.8-0.9c-0.5-0.5-0.8-1.3-0.8-1.9v-0.3h2.1v0.2c0,0.1,0,0.4,0.3,0.7
				c0.3,0.3,0.8,0.3,1.2,0.3s0.9,0,1.2-0.3c0.3-0.3,0.3-0.6,0.3-0.7v-0.2h2.1L283.2,73.2L283.2,73.2z"/>
			<path d="M297.7,90.2V85h-5.9v5.2h-2.4V78.3h2.4v4.6h5.9v-4.6h2.4v11.9C300.1,90.2,297.7,90.2,297.7,90.2z"/>
		</g>
	</g>
</g>
</svg>
