<svg xmlns="http://www.w3.org/2000/svg" viewBox="0 0 48.76 48.76"><defs><style>.cls-1,.cls-3{fill:#2b2a29;}.cls-2{fill:#faeb00;}.cls-3{fill-rule:evenodd;}</style></defs><title>logo-r</title><g id="Layer_2" data-name="Layer 2"><g id="верхняя_плашка" data-name="верхняя плашка"><rect class="cls-1" width="48.76" height="48.76"/><rect class="cls-2" x="1.41" y="1.41" width="45.94" height="45.94"/><path class="cls-3" d="M3.85,38.07l6,6.11,14-14.25L38.39,44.47l6.08-6L30.11,24.09l2.76-2.67v-5.7l1.73-1.47v4.46l2.24,1.82,6.67-6.66,2.14,1.64c1.26-4.67-6-15.28-12.1-9.4l-7,7,1.44,1.74-3.59,3.49-3.46-3.41,1.82-1.64L15,5.82C9.17,1,3.2,8.31,3,15.42l2.11-1.76,6.49,7,2.32-1.94V14.42l1.44,1.09v5.61l2.82,2.82Z"/></g></g></svg>