<svg xmlns="http://www.w3.org/2000/svg" viewBox="0 0 190.06 39.18"><defs><style>.cls-1{fill:#2c2b2a;fill-rule:evenodd;}</style></defs><title>logo-code</title><g id="Layer_2" data-name="Layer 2"><g id="верхняя_плашка" data-name="верхняя плашка"><polygon class="cls-1" points="19.67 11.95 19.67 16.51 5.46 22.94 19.67 29.37 19.67 33.93 0 24.72 0 21.16 19.67 11.95"/><path class="cls-1" d="M40.79,32.34a15.12,15.12,0,0,1-6.32,1.53c-5.83,0-10.17-4.06-10.17-10.78,0-5.6,3.39-10.74,10.17-10.74a13.93,13.93,0,0,1,6.32,1.58v6.3A6.94,6.94,0,0,0,36,18.16c-2.81,0-4.26,2.15-4.26,5S33.47,28,36.33,28a6.65,6.65,0,0,0,4.46-2Z"/><path class="cls-1" d="M59.68,23.09c0-3.27-1.57-5.51-4.47-5.51s-4.46,2.24-4.46,5.51,1.57,5.56,4.46,5.56,4.47-2.24,4.47-5.56Zm-16.41,0c0-5.64,3.68-10.74,11.94-10.74s11.95,5.1,11.95,10.74S63.48,33.87,55.21,33.87,43.27,28.81,43.27,23.09Z"/><path class="cls-1" d="M85.79,23.09c0-2.9-1.77-4.77-4.34-4.77-3,0-4.33,2.41-4.33,4.77s1.28,4.81,4.33,4.81c2.57,0,4.34-1.87,4.34-4.81Zm-.29,10V30.76A7.94,7.94,0,0,1,79,33.87c-5.17,0-9.34-4-9.34-10.78,0-5.1,2.68-10.74,9.34-10.74a7.44,7.44,0,0,1,6.24,2.82V2.65h7.23V33.12Z"/><path class="cls-1" d="M111,20.77A4,4,0,0,0,107,16.7a4.08,4.08,0,0,0-4,4.07ZM117.82,27c-2.31,6.84-9,6.84-10.74,6.84C100.88,33.87,96,30.1,96,23.09c0-6.34,4.18-10.74,11-10.74,9.51,0,11.16,7.88,11,12.36H102.78c-.08,2.53,1.4,4.81,4.3,4.81,2,0,3.43-.87,3.8-2.49Z"/><polygon class="cls-1" points="135.96 0 140.29 0 125.21 39.18 120.87 39.18 135.96 0"/><path class="cls-1" d="M153.07,17.16c2.9,0,3.8-1.66,3.8-3.36s-.9-3.31-3.8-3.31h-2v6.67ZM143,4.1h12c9.67,0,10,7.38,10,8.71,0,5.47-3.34,7.75-6.07,8.7L167,33.12h-9.79l-6.12-9.57v9.57H143Z"/><polygon class="cls-1" points="190.06 23.92 170.39 33.13 170.39 28.57 184.6 22.14 170.39 15.71 170.39 11.15 190.06 20.36 190.06 23.92"/></g></g></svg>